/* XPM */
static char * cd_xpm[] = {
"16 16 207 2",
"  	c None",
". 	c #CCCCCC",
"+ 	c #C9C9C9",
"@ 	c #C7C7C7",
"# 	c #C4C4C4",
"$ 	c #C2C2C2",
"% 	c #BFBFBF",
"& 	c #BDBDBD",
"* 	c #4D4C4E",
"= 	c #65676F",
"- 	c #606365",
"; 	c #393839",
"> 	c #B1B1B1",
", 	c #AFAFAF",
"' 	c #ACACAC",
") 	c #AAAAAA",
"! 	c #A7A7A7",
"~ 	c #402B32",
"{ 	c #513848",
"] 	c #615467",
"^ 	c #747680",
"/ 	c #8A8F93",
"( 	c #8F8D8F",
"_ 	c #6C6A6A",
": 	c #3D3B3B",
"< 	c #A5A5A5",
"[ 	c #3D3A3B",
"} 	c #45363C",
"| 	c #3B1B24",
"1 	c #4F2C3E",
"2 	c #625266",
"3 	c #7B7D88",
"4 	c #96999E",
"5 	c #9A9799",
"6 	c #878384",
"7 	c #7F6555",
"8 	c #56473A",
"9 	c #A3A3A3",
"0 	c #3E3C3E",
"a 	c #604856",
"b 	c #341721",
"c 	c #2A1A20",
"d 	c #4F2535",
"e 	c #634D63",
"f 	c #82838F",
"g 	c #A4A6AB",
"h 	c #A19EA0",
"i 	c #928078",
"j 	c #876850",
"k 	c #836E51",
"l 	c #62594D",
"m 	c #A0A0A0",
"n 	c #79767A",
"o 	c #675A67",
"p 	c #543848",
"q 	c #331821",
"r 	c #401F2A",
"s 	c #604459",
"t 	c #888895",
"u 	c #B0B1B5",
"v 	c #A59E9F",
"w 	c #9A7962",
"x 	c #997F5E",
"y 	c #978976",
"z 	c #898685",
"A 	c #474646",
"B 	c #565757",
"C 	c #7A7B7C",
"D 	c #7B7A7D",
"E 	c #756A75",
"F 	c #5B3C4D",
"G 	c #351B24",
"H 	c #5A3447",
"I 	c #878593",
"J 	c #B6B4B7",
"K 	c #A99184",
"L 	c #A78966",
"M 	c #AC9F8E",
"N 	c #ABA8A8",
"O 	c #A5A3A4",
"P 	c #8D8C8C",
"Q 	c #818181",
"R 	c #898B8B",
"S 	c #8C8E8F",
"T 	c #8C8D8E",
"U 	c #857D86",
"V 	c #634655",
"W 	c #8D8386",
"X 	c #ADABAE",
"Y 	c #C0BEBD",
"Z 	c #A9947F",
"` 	c #BBB0A2",
" .	c #C3C1C2",
"..	c #C9C7C6",
"+.	c #C1BDB9",
"@.	c #AAA59B",
"#.	c #565656",
"$.	c #929191",
"%.	c #999897",
"&.	c #9F9E9E",
"*.	c #A2A3A3",
"=.	c #A2A4A4",
"-.	c #A6A5A6",
";.	c #888385",
">.	c #AFABAE",
",.	c #908C88",
"'.	c #CDCAC8",
").	c #CECAC7",
"!.	c #DCD5C9",
"~.	c #DBD2BE",
"{.	c #D2C8B2",
"].	c #BDB49F",
"^.	c #8B8986",
"/.	c #9C9A97",
"(.	c #A7A5A1",
"_.	c #B0AEAB",
":.	c #B9B6B3",
"<.	c #C0BDBA",
"[.	c #CDCCCA",
"}.	c #9A9999",
"|.	c #EDE9E9",
"1.	c #E6E4E1",
"2.	c #B7B6B4",
"3.	c #DAD0C1",
"4.	c #E5D8C5",
"5.	c #E4D5C4",
"6.	c #DDCFBE",
"7.	c #CCBFB0",
"8.	c #746F6B",
"9.	c #ABA79F",
"0.	c #B8B4AB",
"a.	c #C4C0B6",
"b.	c #CFCBC0",
"c.	c #D8D5CB",
"d.	c #CBCAC6",
"e.	c #B6B5B5",
"f.	c #908F90",
"g.	c #CECFD1",
"h.	c #C1BFC0",
"i.	c #D7D1D0",
"j.	c #DAD5D3",
"k.	c #D8D3D1",
"l.	c #CCC8C6",
"m.	c #B3B3B3",
"n.	c #AFADA3",
"o.	c #C1BEB5",
"p.	c #CECCC6",
"q.	c #DAD8D6",
"r.	c #E4E3E2",
"s.	c #CFCECE",
"t.	c #E6E6E6",
"u.	c #DADADA",
"v.	c #8B7F8C",
"w.	c #696D7A",
"x.	c #98A1A9",
"y.	c #BEC1C5",
"z.	c #D1CECF",
"A.	c #D0CACB",
"B.	c #8F8E8C",
"C.	c #C6C5C5",
"D.	c #D7D6D6",
"E.	c #E1E1E0",
"F.	c #E6E5E3",
"G.	c #E5E4E2",
"H.	c #ECEBEB",
"I.	c #FEFEFE",
"J.	c #F1F0F1",
"K.	c #CFC4CC",
"L.	c #8D768B",
"M.	c #635F6F",
"N.	c #7A8290",
"O.	c #9AA7B0",
"P.	c #B3BAC0",
"Q.	c #CBCAC9",
"R.	c #D9D8D7",
"S.	c #E2E1DF",
"T.	c #E7E5E3",
"U.	c #E9E7E7",
"V.	c #FBFAFA",
"W.	c #FFFFFF",
"X.	c #FEFDFE",
"Y.	c #F2F1F2",
"Z.	c #D2BECC",
"`.	c #997D94",
" +	c #6A5F71",
".+	c #6D6E7E",
"++	c #696F78",
"@+	c #8A8A89",
"#+	c #D7D6D5",
"$+	c #E3E1DF",
"%+	c #E8E7E6",
"&+	c #F5F3F3",
"*+	c #F7F2F6",
"=+	c #D8BBCF",
"-+	c #A4849D",
";+	c #726377",
">+	c #888888",
",+	c #A1A09E",
"'+	c #E3E1E0",
")+	c #EDEBEA",
"!+	c #FDFDFC",
"~+	c #FAF0F8",
"{+	c #D4B4CA",
"]+	c #868686",
"^+	c #727171",
"/+	c #BABABA",
"(+	c #838383",
". + @ # $ % & * = - ; > , ' ) ! ",
"+ @ # $ % ~ { ] ^ / ( _ : ) ! < ",
"@ # $ [ } | 1 2 3 4 5 6 7 8 < 9 ",
"# $ 0 a b c d e f g h i j k l m ",
"$ % n o p q r s t u v w x y z A ",
"% B C D E F G H I J K L M N O P ",
"& Q R S T U V W X Y Z `  ...+.@.",
"#.$.%.&.*.=.-.;.>.,.'.).!.~.{.].",
"^./.(._.:.<.[.}.|.1.2.3.4.5.6.7.",
"8.9.0.a.b.c.d.e.! f.g.h.i.j.k.l.",
"m.n.o.p.q.r.r.s.t.u.v.w.x.y.z.A.",
"> B.C.D.E.F.G.H.I.J.K.L.M.N.O.P.",
", ' Q.R.S.T.U.V.W.X.Y.Z.`. +.+++",
"' ) @+#+$+%+&+W.W.W.I.*+=+-+;+>+",
") ! < ,+'+)+!+W.W.W.W.W.~+{+>+]+",
"! < 9 m ^+U.W.W.W.W.W.W./+>+]+(+"};
