/* XPM */
static char * ghost_xpm[] = {
"16 16 52 1",
" 	c None",
".	c #CCCCCC",
"+	c #C9C9C9",
"@	c #C7C7C7",
"#	c #C4C4C4",
"$	c #C2C2C2",
"%	c #BFBFBF",
"&	c #BDBDBD",
"*	c #BBBBBB",
"=	c #B8B8B8",
"-	c #B6B6B6",
";	c #B3B3B3",
">	c #B1B1B1",
",	c #AFAFAF",
"'	c #ACACAC",
")	c #AAAAAA",
"!	c #A7A7A7",
"~	c #080808",
"{	c #A5A5A5",
"]	c #E8E8E8",
"^	c #F8F8F8",
"/	c #D0D0D0",
"(	c #A3A3A3",
"_	c #989898",
":	c #A0A0A0",
"<	c #7A7D72",
"[	c #48424A",
"}	c #C0C0C0",
"|	c #707070",
"1	c #888888",
"2	c #F0F0F0",
"3	c #9E9E9E",
"4	c #ACA8AC",
"5	c #B0B0B0",
"6	c #909090",
"7	c #D8D8D8",
"8	c #404038",
"9	c #9B9B9B",
"0	c #686868",
"a	c #787878",
"b	c #949494",
"c	c #979797",
"d	c #929292",
"e	c #383C44",
"f	c #8F8F8F",
"g	c #CCCCC8",
"h	c #8D8D8D",
"i	c #8B8B8B",
"j	c #E0E0DC",
"k	c #606060",
"l	c #B0B0B8",
"m	c #A8A8A8",
".+@#$%&*=-;>,')!",
"+@#$%&~~~~~,')!{",
"@#$%&~]^^^/~)!{(",
"#$%&~^^^^^^_~{(:",
"$%&<~/[}]|12~(:3",
"%&~~45~67~8^~~~9",
"&~]22^^^^^^^_20~",
"*~a2^^^^^^^^^71~",
"=-~12^^^^^^^=~~b",
"-;>~/^^^^^^^~cbd",
";>,~/^^^^^^^~edf",
">,'~/^^^^^^^g~fh",
",')~7^2]^^^g^/~i",
"')~6^^5_2^j~/^}~",
")~k7^2~|=}6~4}4~",
"!~|5l~~~~~~m~~km"};
