/* XPM */
static char * gimp_xpm[] = {
"16 16 129 2",
"  	c None",
". 	c #CCCCCC",
"+ 	c #C9C9C9",
"@ 	c #C7C7C7",
"# 	c #C4C4C4",
"$ 	c #C2C2C2",
"% 	c #BFBFBF",
"& 	c #BDBDBD",
"* 	c #BBBBBB",
"= 	c #B8B8B8",
"- 	c #B6B6B6",
"; 	c #B3B3B3",
"> 	c #B1B1B1",
", 	c #AFAFAF",
"' 	c #ACACAC",
") 	c #AAAAAA",
"! 	c #A7A7A7",
"~ 	c #A5A5A5",
"{ 	c #676359",
"] 	c #A3A3A3",
"^ 	c #585449",
"/ 	c #7B7565",
"( 	c #524C3E",
"_ 	c #978D74",
": 	c #716A5A",
"< 	c #9F9F9F",
"[ 	c #605A48",
"} 	c #645C4A",
"| 	c #A19B8B",
"1 	c #91866F",
"2 	c #89806D",
"3 	c #878174",
"4 	c #6A6557",
"5 	c #575348",
"6 	c #484337",
"7 	c #5E5747",
"8 	c #69624F",
"9 	c #635B4A",
"0 	c #5A5445",
"a 	c #BFBFBD",
"b 	c #BEBEBC",
"c 	c #CECABE",
"d 	c #EEEDE9",
"e 	c #E7E7E6",
"f 	c #CDCAC1",
"g 	c #756D58",
"h 	c #615948",
"i 	c #534E3F",
"j 	c #4D4739",
"k 	c #4F4A3C",
"l 	c #34312B",
"m 	c #696968",
"n 	c #737372",
"o 	c #3E3D3A",
"p 	c #B3B0A8",
"q 	c #3F3F3E",
"r 	c #E0DEDA",
"s 	c #D3D3D3",
"t 	c #424242",
"u 	c #C0BFBF",
"v 	c #726C57",
"w 	c #575241",
"x 	c #454034",
"y 	c #3C382D",
"z 	c #3B3933",
"A 	c #979797",
"B 	c #494949",
"C 	c #535353",
"D 	c #736E60",
"E 	c #9D9684",
"F 	c #958D77",
"G 	c #C9C7C1",
"H 	c #8F8F8D",
"I 	c #9D9991",
"J 	c #625A49",
"K 	c #4D4839",
"L 	c #3E3A2F",
"M 	c #39352C",
"N 	c #353434",
"O 	c #949494",
"P 	c #373738",
"Q 	c #454546",
"R 	c #636363",
"S 	c #656156",
"T 	c #6D6652",
"U 	c #7A725C",
"V 	c #766D5A",
"W 	c #6E6755",
"X 	c #615A48",
"Y 	c #464135",
"Z 	c #433F32",
"` 	c #3B372C",
" .	c #33312C",
"..	c #40403F",
"+.	c #929292",
"@.	c #6A6968",
"#.	c #75736F",
"$.	c #4F4A3E",
"%.	c #534D3E",
"&.	c #585242",
"*.	c #4A4539",
"=.	c #3B3830",
"-.	c #5F5C52",
";.	c #3F3B30",
">.	c #302D25",
",.	c #8F8F8F",
"'.	c #35332E",
").	c #3A3834",
"!.	c #858483",
"~.	c #5D5C58",
"{.	c #434036",
"].	c #5B574D",
"^.	c #46433B",
"/.	c #6C6C6A",
"(.	c #515151",
"_.	c #8D8D8D",
":.	c #494947",
"<.	c #383736",
"[.	c #5C5B5A",
"}.	c #616160",
"|.	c #838383",
"1.	c #737373",
"2.	c #8B8B8B",
"3.	c #A0A0A0",
"4.	c #9E9E9E",
"5.	c #9B9B9B",
"6.	c #999999",
"7.	c #888888",
"8.	c #868686",
". + @ # $ % & * = - ; > , ' ) ! ",
"+ @ # $ % & * = - ; > , ' ) ! ~ ",
"@ # $ % { * = - ; > , ' ) ! ~ ] ",
"# $ % & ^ / - ; > , ' ) ! ~ ] ( ",
"$ % & * = _ : < , ' ) ! ~ ] [ } ",
"% & * = - | 1 2 3 4 5 6 7 8 9 0 ",
"& * = - a b c d e f g h i j k l ",
"* m n o p q r s t u v w x y z A ",
"= B C q D E F G H I J K L M N O ",
"- P Q R S T U V W X Y Z `  ...+.",
"; > @.#.$.%.7 &.*.=.-.;.>.N +.,.",
"> , ' '.).!.] ~.{.].^./.(.+.,._.",
", ' ) ! ~ :.<.[.}.|.1.(.+.,._.2.",
"' ) ! ~ ] 3.4.5.6.A O +.,._.2.7.",
") ! ~ ] 3.4.5.6.A O +.,._.2.7.8.",
"! ~ ] 3.4.5.6.A O +.,._.2.7.8.|."};
