/* XPM */
static char * glowX_xpm[] = {
"16 16 196 2",
"  	c None",
". 	c #CCCCCC",
"+ 	c #C9C9C9",
"@ 	c #C7C7C7",
"# 	c #C4BDBC",
"$ 	c #CC9784",
"% 	c #CE876E",
"& 	c #CE8067",
"* 	c #CC836A",
"= 	c #C88875",
"- 	c #C1877F",
"; 	c #C2897A",
"> 	c #C38871",
", 	c #C38A71",
"' 	c #BE8D79",
") 	c #B4948C",
"! 	c #A7A7A7",
"~ 	c #C4C4C4",
"{ 	c #CC9D8A",
"] 	c #C69259",
"^ 	c #D8A658",
"/ 	c #DCAB58",
"( 	c #D9A256",
"_ 	c #C8844F",
": 	c #CD795A",
"< 	c #C58553",
"[ 	c #D2A55A",
"} 	c #D2A65A",
"| 	c #C09458",
"1 	c #B68C6B",
"2 	c #AD9690",
"3 	c #C2C2C2",
"4 	c #CB9480",
"5 	c #D09C57",
"6 	c #EEDE9C",
"7 	c #F9F5D3",
"8 	c #EDDC94",
"9 	c #D98E49",
"0 	c #D16541",
"a 	c #D59951",
"b 	c #E9D997",
"c 	c #E0C87C",
"d 	c #C99B5A",
"e 	c #B58A6A",
"f 	c #AB958E",
"g 	c #BFBFBF",
"h 	c #C58E88",
"i 	c #D48354",
"j 	c #E1B962",
"k 	c #FBF9E0",
"l 	c #F9F5CF",
"m 	c #E09441",
"n 	c #D86833",
"o 	c #D8A155",
"p 	c #D8B769",
"q 	c #D49752",
"r 	c #BF8064",
"s 	c #B08980",
"t 	c #A0A0A0",
"u 	c #BDBDBD",
"v 	c #BFA5A5",
"w 	c #C96C62",
"x 	c #DD863E",
"y 	c #F2E7AC",
"z 	c #E8C366",
"A 	c #DFA04D",
"B 	c #D4A35C",
"C 	c #D28951",
"D 	c #BA7265",
"E 	c #AF7F7F",
"F 	c #9E9E9E",
"G 	c #BBBBBB",
"H 	c #B8B8B8",
"I 	c #C37777",
"J 	c #D36841",
"K 	c #E6C16B",
"L 	c #FBF9E3",
"M 	c #F6F0BF",
"N 	c #E8C97A",
"O 	c #D88143",
"P 	c #BE685C",
"Q 	c #B07C7C",
"R 	c #9B9B9B",
"S 	c #B6B6B6",
"T 	c #BF7F7F",
"U 	c #CB5B49",
"V 	c #E09542",
"W 	c #F9F7D8",
"X 	c #E6BA5F",
"Y 	c #CF5F38",
"Z 	c #B96664",
"` 	c #A19B9B",
" .	c #999999",
"..	c #B3B3B3",
"+.	c #BE7A7A",
"@.	c #CB5D48",
"#.	c #E09A45",
"$.	c #F9F3CD",
"%.	c #FDFBED",
"&.	c #EBD281",
"*.	c #D46B37",
"=.	c #B95F5C",
"-.	c #9F9999",
";.	c #979797",
">.	c #BA8A8A",
",.	c #C27367",
"'.	c #D7874A",
").	c #E3BE71",
"!.	c #EEDB8B",
"~.	c #FBFBE7",
"{.	c #F9F3CB",
"].	c #DC9143",
"^.	c #BF5B4D",
"/.	c #A97878",
"(.	c #949494",
"_.	c #B89393",
":.	c #C1786B",
"<.	c #D48F52",
"[.	c #D7AF64",
"}.	c #DB9B50",
"|.	c #E2943A",
"1.	c #F2E9AB",
"2.	c #E6C36B",
"3.	c #CA6740",
"4.	c #AE6868",
"5.	c #929292",
"6.	c #B2ACAC",
"7.	c #C07D70",
"8.	c #D49051",
"9.	c #DDBF70",
"0.	c #DCB76A",
"a.	c #D46E39",
"b.	c #D55B2B",
"c.	c #E8C46E",
"d.	c #F2E7AB",
"e.	c #D6833E",
"f.	c #B46056",
"g.	c #978C8C",
"h.	c #8F8F8F",
"i.	c #B1B1B1",
"j.	c #BC8B80",
"k.	c #D1965B",
"l.	c #DFC172",
"m.	c #ECDE9B",
"n.	c #DEA44C",
"o.	c #CA573C",
"p.	c #CF5B36",
"q.	c #E1AE53",
"r.	c #F9F5D1",
"s.	c #DDB25D",
"t.	c #C47C4F",
"u.	c #A4766E",
"v.	c #8D8D8D",
"w.	c #AFAFAF",
"x.	c #C19579",
"y.	c #C6A460",
"z.	c #DFC777",
"A.	c #E3CB7B",
"B.	c #CEA35F",
"C.	c #C87750",
"D.	c #C3784B",
"E.	c #D8AF65",
"F.	c #E8CF80",
"G.	c #E8D17F",
"H.	c #DCBB6D",
"I.	c #BC8E54",
"J.	c #A97E6B",
"K.	c #8B8B8B",
"L.	c #ACACAC",
"M.	c #B59287",
"N.	c #C38F69",
"O.	c #C8895A",
"P.	c #C88556",
"Q.	c #C2825D",
"R.	c #B57466",
"S.	c #B77360",
"T.	c #C27A52",
"U.	c #C67749",
"V.	c #C57547",
"W.	c #C07A4F",
"X.	c #B07C5F",
"Y.	c #928684",
"Z.	c #888888",
"`.	c #AAAAAA",
" +	c #A5A5A5",
".+	c #AC8888",
"++	c #AD7D7D",
"@+	c #A29191",
"#+	c #9A9494",
"$+	c #A27E7E",
"%+	c #A57070",
"&+	c #A46D6D",
"*+	c #9F7070",
"=+	c #868686",
"-+	c #A3A3A3",
";+	c #838383",
". + @ # $ % & * = - ; > , ' ) ! ",
"+ @ ~ { ] ^ / ( _ : < [ } | 1 2 ",
"@ ~ 3 4 5 6 7 8 9 0 a b c d e f ",
"~ 3 g h i j k l m n o p q r s t ",
"3 g u v w x y k z A B C D E t F ",
"g u G H I J K L M N O P Q t F R ",
"u G H S T U V W k X Y Z ` F R  .",
"G H S ..+.@.#.$.%.&.*.=.-.R  .;.",
"H S ..>.,.'.).!.~.{.].^./. .;.(.",
"S .._.:.<.[.}.|.1.L 2.3.4.;.(.5.",
"..6.7.8.9.0.a.b.c.L d.e.f.g.5.h.",
"i.j.k.l.m.n.o.p.q.r.7 s.t.u.h.v.",
"w.x.y.z.A.B.C.D.E.F.G.H.I.J.v.K.",
"L.M.N.O.P.Q.R.S.T.U.V.W.X.Y.K.Z.",
"`.!  +.+++@+R #+$+%+&+*+v.K.Z.=+",
"!  +-+t F R  .;.(.5.h.v.K.Z.=+;+"};
