/* XPM */
static char * gnustep_xpm[] = {
"16 16 80 1",
" 	c None",
".	c #CCCCCC",
"+	c #C9C9C9",
"@	c #C7C7C7",
"#	c #C4C4C4",
"$	c #C2C2C2",
"%	c #BFBFBF",
"&	c #BDBDBD",
"*	c #BBBBBB",
"=	c #B8B8B8",
"-	c #B6B6B6",
";	c #B3B3B3",
">	c #B1B1B1",
",	c #AFAFAF",
"'	c #ACACAC",
")	c #AAAAAA",
"!	c #A7A7A7",
"~	c #86868E",
"{	c #868286",
"]	c #616561",
"^	c #494949",
"/	c #303030",
"(	c #101410",
"_	c #A5A5A5",
":	c #A6A6A6",
"<	c #9E9E9E",
"[	c #717171",
"}	c #616161",
"|	c #181C18",
"1	c #080808",
"2	c #000000",
"3	c #A3A3A3",
"4	c #B0ACB0",
"5	c #9E9A9E",
"6	c #595959",
"7	c #494D49",
"8	c #383838",
"9	c #202420",
"0	c #181818",
"a	c #A6A2A6",
"b	c #797979",
"c	c #515151",
"d	c #414541",
"e	c #282C28",
"f	c #FFFFFF",
"g	c #868686",
"h	c #696D69",
"i	c #D7D3D7",
"j	c #797D79",
"k	c #515551",
"l	c #414141",
"m	c #303430",
"n	c #202020",
"o	c #080C08",
"p	c #F7F7F7",
"q	c #CFCBCF",
"r	c #AEAAAE",
"s	c #101418",
"t	c #8E8E8E",
"u	c #595D59",
"v	c #000400",
"w	c #E7E7E7",
"x	c #BEBABE",
"y	c #696969",
"z	c #8E8A8E",
"A	c #383C38",
"B	c #DFDBDF",
"C	c #AEAEAE",
"D	c #969696",
"E	c #101010",
"F	c #D7D7D7",
"G	c #282828",
"H	c #EFEFEF",
"I	c #969296",
"J	c #DFDFDF",
"K	c #CFCFCF",
"L	c #BEBEBE",
"M	c #717571",
"N	c #E7E3E7",
"O	c #C7C3C7",
".+@#$%&*=-;>,')!",
"+@#$%~{]^/(^')!_",
"@#$:<[}^/|122!_3",
"#$45[6789(22|022",
"$%ab}cd/|12eff[2",
"%:gh6d89(22efia2",
"&5j]klmno22epqrs",
"gt[u^m9(v22ewx:]",
"yz]kA(ov222eBCD]",
"yju^/EFfffffx<zu",
"kyklGoifHBqxaI[/",
">]7891ifJqxC5g]1",
",^de0vqHKLr<zM82",
"')dov2FNOC<tMu22",
"6c/(fffOC<{ye222",
"cm|E2e[bh}9E2222"};
