/* XPM */
static char * info_xpm[] = {
"16 16 185 2",
"  	c None",
". 	c #CCCCCC",
"+ 	c #C9C9C9",
"@ 	c #C7C7C7",
"# 	c #C4C4C4",
"$ 	c #C2C2C2",
"% 	c #BFBFBF",
"& 	c #BDBDBD",
"* 	c #BBBBBB",
"= 	c #B8B8B8",
"- 	c #B6B6B6",
"; 	c #B3B3B3",
"> 	c #B1B1B1",
", 	c #AFAFAF",
"' 	c #ACACAC",
") 	c #AAAAAA",
"! 	c #A7A7A7",
"~ 	c #ADAEB8",
"{ 	c #757C98",
"] 	c #7F88AA",
"^ 	c #878FB3",
"/ 	c #A5A5A5",
"( 	c #B6B7BC",
"_ 	c #76809B",
": 	c #5D6083",
"< 	c #485383",
"[ 	c #696D8F",
"} 	c #5A6595",
"| 	c #586398",
"1 	c #6471A2",
"2 	c #828EB2",
"3 	c #A3A3A3",
"4 	c #A5A8B7",
"5 	c #626485",
"6 	c #3B4470",
"7 	c #303973",
"8 	c #6372A9",
"9 	c #9495B1",
"0 	c #646EA0",
"a 	c #42518E",
"b 	c #354483",
"c 	c #4D578B",
"d 	c #8486AA",
"e 	c #A0A0A0",
"f 	c #AEB1BA",
"g 	c #5D5F81",
"h 	c #29316D",
"i 	c #38418E",
"j 	c #3E4791",
"k 	c #A5B1CF",
"l 	c #C7C3C7",
"m 	c #8487A6",
"n 	c #485384",
"o 	c #384482",
"p 	c #434B90",
"q 	c #535C98",
"r 	c #858BAF",
"s 	c #9E9E9E",
"t 	c #657090",
"u 	c #283162",
"v 	c #38408D",
"w 	c #414A90",
"x 	c #797DA6",
"y 	c #B9B6BD",
"z 	c #636680",
"A 	c #3D4475",
"B 	c #394180",
"C 	c #414C8E",
"D 	c #48578F",
"E 	c #6D769E",
"F 	c #9B9B9B",
"G 	c #8990B4",
"H 	c #4F5582",
"I 	c #2E3672",
"J 	c #38418D",
"K 	c #3D478E",
"L 	c #676F96",
"M 	c #7A7DA5",
"N 	c #60637E",
"O 	c #5C607B",
"P 	c #434D81",
"Q 	c #3C4A89",
"R 	c #41518E",
"S 	c #41518F",
"T 	c #495898",
"U 	c #878CB0",
"V 	c #6A7188",
"W 	c #404777",
"X 	c #37428D",
"Y 	c #38488D",
"Z 	c #3D4D8F",
"` 	c #9793A7",
" .	c #D7D7DF",
"..	c #9D99AC",
"+.	c #505482",
"@.	c #38447F",
"#.	c #42518F",
"$.	c #4E5697",
"%.	c #7C80A9",
"&.	c #6F778D",
"*.	c #444A7B",
"=.	c #38438D",
"-.	c #38488C",
";.	c #394587",
">.	c #474F92",
",.	c #B2C0DC",
"'.	c #DFDBDF",
").	c #9E9AAC",
"!.	c #505A87",
"~.	c #384983",
"{.	c #435190",
"].	c #475194",
"^.	c #485691",
"/.	c #444E7B",
"(.	c #39488D",
"_.	c #40488D",
":.	c #5A5F78",
"<.	c #404978",
"[.	c #434C90",
"}.	c #485195",
"|.	c #7B84A2",
"1.	c #4C558A",
"2.	c #37448C",
"3.	c #3A4689",
"4.	c #41498E",
"5.	c #E4E0E4",
"6.	c #545C82",
"7.	c #3D4982",
"8.	c #474F94",
"9.	c #495296",
"0.	c #505C98",
"a.	c #8489AE",
"b.	c #606C9E",
"c.	c #364385",
"d.	c #3D478A",
"e.	c #EBE7EB",
"f.	c #9F9BAD",
"g.	c #565D7F",
"h.	c #404B81",
"i.	c #4C5896",
"j.	c #616D9B",
"k.	c #8D8D8D",
"l.	c #7F8DB3",
"m.	c #49548C",
"n.	c #40498D",
"o.	c #444E8F",
"p.	c #64689A",
"q.	c #C4CCE0",
"r.	c #EFEBEF",
"s.	c #B6B2BF",
"t.	c #78798D",
"u.	c #535B87",
"v.	c #495596",
"w.	c #526097",
"x.	c #7A82A6",
"y.	c #8B8B8B",
"z.	c #7A80AB",
"A.	c #505892",
"B.	c #4D5A93",
"C.	c #8686A3",
"D.	c #BEBFCE",
"E.	c #C4C3D2",
"F.	c #B9B9C9",
"G.	c #9192AA",
"H.	c #646C98",
"I.	c #4E5D96",
"J.	c #6670A0",
"K.	c #8D8F9A",
"L.	c #888888",
"M.	c #8D8EAB",
"N.	c #616AA3",
"O.	c #4A5890",
"P.	c #3A497F",
"Q.	c #394077",
"R.	c #3A497E",
"S.	c #3C4A7E",
"T.	c #49588B",
"U.	c #6D779F",
"V.	c #909198",
"W.	c #868686",
"X.	c #9694A9",
"Y.	c #888CB0",
"Z.	c #878BAF",
"`.	c #9292AB",
" +	c #838383",
". + @ # $ % & * = - ; > , ' ) ! ",
"+ @ # $ % & ~ { { ] ^ , ' ) ! / ",
"@ # $ % ( _ : < [ } | 1 2 ! / 3 ",
"# $ % 4 5 6 7 8 9 0 a b c d 3 e ",
"$ % f g h i j k l m n o p q r s ",
"% & t u v i w x y z A B C D E F ",
"& G H I J K L M N O P Q R S T U ",
"* V W J X Y Z `  ...+.@.R #.$.%.",
"= &.*.=.-.;.>.,.'.).!.~.{.].^.%.",
"- &./.Y (._.>.,.'.).:.<.[.}.$.%.",
"; |.1.2.3.4.>.,.5.).6.7.8.9.0.a.",
"> , b.c.d.4.>.,.e.f.g.h.9.i.j.k.",
", ' l.m.n.o.p.q.r.s.t.u.v.w.x.y.",
"' ) ! z.A.B.C.D.E.F.G.H.I.J.K.L.",
") ! / 3 M.N.O.P.Q.R.S.T.U.V.L.W.",
"! / 3 e s F X.Y.%.Z.`.k.y.L.W. +"};
