/* XPM */
static char * keyboard_xpm[] = {
"16 16 82 1",
" 	c None",
".	c #CCCCCC",
"+	c #C9C9C9",
"@	c #C7C7C7",
"#	c #C4C4C4",
"$	c #C2C2C2",
"%	c #BFBFBF",
"&	c #BDBDBD",
"*	c #BBBBBB",
"=	c #B8B8B8",
"-	c #B6B6B6",
";	c #B3B3B3",
">	c #B1B1B1",
",	c #AFAFAF",
"'	c #ACACAC",
")	c #AAAAAA",
"!	c #A7A7A7",
"~	c #B0B0B0",
"{	c #606060",
"]	c #D7D7D7",
"^	c #CECECE",
"/	c #717171",
"(	c #D6D6D6",
"_	c #5F5F5F",
":	c #D5D5D5",
"<	c #BABABA",
"[	c #6C6C6C",
"}	c #D8D8D8",
"|	c #C6C6C6",
"1	c #707070",
"2	c #C5C5C5",
"3	c #696969",
"4	c #D4D4D4",
"5	c #D1D1D1",
"6	c #6E6E6E",
"7	c #C3C3C3",
"8	c #9D9D9D",
"9	c #6A6A6A",
"0	c #CBCBCB",
"a	c #A3A3A3",
"b	c #A2A2A2",
"c	c #A0A0A0",
"d	c #7E7E7E",
"e	c #939393",
"f	c #A1A1A1",
"g	c #959595",
"h	c #727272",
"i	c #686868",
"j	c #BCBCBC",
"k	c #BEBEBE",
"l	c #989898",
"m	c #999999",
"n	c #ABABAB",
"o	c #B9B9B9",
"p	c #B2B2B2",
"q	c #D2D2D2",
"r	c #848484",
"s	c #D0D0D0",
"t	c #CACACA",
"u	c #8D8D8D",
"v	c #888888",
"w	c #B5B5B5",
"x	c #AEAEAE",
"y	c #D3D3D3",
"z	c #808080",
"A	c #5E5E5E",
"B	c #5C5C5C",
"C	c #777777",
"D	c #7F7F7F",
"E	c #CDCDCD",
"F	c #9F9F9F",
"G	c #9E9E9E",
"H	c #868686",
"I	c #969696",
"J	c #B7B7B7",
"K	c #8E8E8E",
"L	c #8F8F8F",
"M	c #929292",
"N	c #C1C1C1",
"O	c #B4B4B4",
"P	c #C8C8C8",
"Q	c #818181",
".+@#$%&*=-;>,')!",
"+~{]^/#.(_:::<[+",
"@]]}|1$2((:(:;3+",
"#45##6277^5.%890",
"$abcd62efffcghi&",
"%==jk;8lmno-*=pl",
"&}}}]q,rjs(((:tu",
"*}v]]:w9+:(x::yd",
"=((+*:<[+44'yyyz",
"-(bA(:;3+^:BCy.D",
";7^5.%890<7E^$o6",
">fffcghi&FcFGFH9",
",o;efI>oJ<;!GGG;",
"']0Ku)4:::y2LMNy",
")(4D6~::e44t[OPy",
"!44Q/-yyCqq+[%@5"};
