/* XPM */
static char * mozilla_xpm[] = {
"16 16 103 2",
"  	c None",
". 	c #2D2322",
"+ 	c #220805",
"@ 	c #2A1A18",
"# 	c #3E3E3E",
"$ 	c #333131",
"% 	c #42130D",
"& 	c #A92819",
"* 	c #902315",
"= 	c #BB2D1B",
"- 	c #69190F",
"; 	c #5F170E",
"> 	c #43110A",
", 	c #414040",
"' 	c #1D1D1D",
") 	c #130503",
"! 	c #C22E1C",
"~ 	c #801F13",
"{ 	c #62180E",
"] 	c #A22718",
"^ 	c #771D11",
"/ 	c #762218",
"( 	c #1F1413",
"_ 	c #2B1A18",
": 	c #3C3C3C",
"< 	c #0A0909",
"[ 	c #160503",
"} 	c #D2321F",
"| 	c #DE3520",
"1 	c #8B2114",
"2 	c #1E0704",
"3 	c #9E2617",
"4 	c #9C2517",
"5 	c #691D13",
"6 	c #AF2A1A",
"7 	c #712117",
"8 	c #3F231F",
"9 	c #2C2B2B",
"0 	c #070303",
"a 	c #60170E",
"b 	c #E23621",
"c 	c #D1321F",
"d 	c #D4331F",
"e 	c #CB311E",
"f 	c #731B11",
"g 	c #A42718",
"h 	c #D93420",
"i 	c #721C11",
"j 	c #3A3838",
"k 	c #2C2A2A",
"l 	c #0A0505",
"m 	c #BD2D1C",
"n 	c #5E170E",
"o 	c #C52F1D",
"p 	c #AF2A19",
"q 	c #060101",
"r 	c #641C13",
"s 	c #CF321E",
"t 	c #211210",
"u 	c #4E4E4E",
"v 	c #060606",
"w 	c #65180F",
"x 	c #E13621",
"y 	c #64180F",
"z 	c #932316",
"A 	c #CF311E",
"B 	c #DF3521",
"C 	c #741C11",
"D 	c #331C1A",
"E 	c #382D2C",
"F 	c #5D2822",
"G 	c #79291F",
"H 	c #271C1B",
"I 	c #505050",
"J 	c #1E1E1E",
"K 	c #0D0302",
"L 	c #CB301E",
"M 	c #8C2114",
"N 	c #831F13",
"O 	c #5A1A13",
"P 	c #6B1D14",
"Q 	c #8A2114",
"R 	c #38140F",
"S 	c #202020",
"T 	c #1A0604",
"U 	c #C02E1C",
"V 	c #C42F1D",
"W 	c #200805",
"X 	c #2B2A2A",
"Y 	c #464646",
"Z 	c #3A3A3A",
"` 	c #390E09",
" .	c #D0321E",
"..	c #821F13",
"+.	c #40221F",
"@.	c #393231",
"#.	c #642018",
"$.	c #B92C1B",
"%.	c #4A120B",
"&.	c #232222",
"*.	c #322827",
"=.	c #31130F",
"-.	c #040101",
"                                ",
"                                ",
"          . + @ #               ",
"      $ % & * = - ; > ,         ",
"    ' ) ! ~ { ] ^ / ( _         ",
"  : < [ } | 1 2 3 4 5 6 7 8     ",
"  9 0 a b 4 c d e f g b b h i j ",
"  k l m b n o b p 2 q r s b g t ",
"  u v w x y z A B f C D E F G H ",
"  I J K e h L M N ~ O P Q R S   ",
"    , T U b b V W X     Y       ",
"    Z ` e b  ...+.              ",
"      @.#.$.U %.&.              ",
"          *.=.-.                ",
"                                ",
"                                "};
