/* XPM */
static char * palette_xpm[] = {
"16 16 192 2",
"  	c None",
". 	c #CCCCCC",
"+ 	c #C9C9C9",
"@ 	c #C7C7C7",
"# 	c #C4C4C4",
"$ 	c #C2C2C2",
"% 	c #BFBFBF",
"& 	c #BDBDBD",
"* 	c #BBBBBB",
"= 	c #B8B8B8",
"- 	c #B6B6B6",
"; 	c #E3AE73",
"> 	c #B1B1B1",
", 	c #AFAFAF",
"' 	c #ACACAC",
") 	c #AAAAAA",
"! 	c #A7A7A7",
"~ 	c #99764E",
"{ 	c #C79E66",
"] 	c #DEAD71",
"^ 	c #D8A86B",
"/ 	c #C79E68",
"( 	c #584636",
"_ 	c #A5A5A5",
": 	c #B98E5F",
"< 	c #F09C5D",
"[ 	c #F08D4E",
"} 	c #EA8A4A",
"| 	c #DFAB71",
"1 	c #EC636F",
"2 	c #F43A71",
"3 	c #F03B6F",
"4 	c #D39E6B",
"5 	c #725F50",
"6 	c #A3A3A3",
"7 	c #EFB87A",
"8 	c #E9B574",
"9 	c #F96C2A",
"0 	c #FF4D00",
"a 	c #FF4B00",
"b 	c #D8AA6D",
"c 	c #F43E6F",
"d 	c #FF0773",
"e 	c #FF0673",
"f 	c #C59E66",
"g 	c #C59864",
"h 	c #A0A0A0",
"i 	c #D4A16D",
"j 	c #EBB575",
"k 	c #E9B373",
"l 	c #F46926",
"m 	c #FF4900",
"n 	c #D6A36D",
"o 	c #EE3C6F",
"p 	c #C59661",
"q 	c #B89263",
"r 	c #A17F5B",
"s 	c #9E9E9E",
"t 	c #6A5436",
"u 	c #F7D526",
"v 	c #F7D42A",
"w 	c #ECCB3F",
"x 	c #E59959",
"y 	c #E58A47",
"z 	c #E18947",
"A 	c #CFA36A",
"B 	c #CF9E6B",
"C 	c #C58562",
"D 	c #C24E66",
"E 	c #AD6396",
"F 	c #A56493",
"G 	c #A17181",
"H 	c #9B9B9B",
"I 	c #9B7950",
"J 	c #FFE700",
"K 	c #F5D226",
"L 	c #DAA66A",
"M 	c #D8A36D",
"N 	c #C09362",
"O 	c #78484C",
"P 	c #BA0C5B",
"Q 	c #95404B",
"R 	c #8708FF",
"S 	c #9033C5",
"T 	c #524738",
"U 	c #97764C",
"V 	c #F0D326",
"W 	c #D6A86B",
"X 	c #D1A36A",
"Y 	c #CD9C66",
"Z 	c #544D3A",
"` 	c #1C0911",
" .	c #6E0134",
"..	c #6F503A",
"+.	c #8508FF",
"@.	c #9033C9",
"#.	c #7E694C",
"$.	c #95754A",
"%.	c #DEA86F",
"&.	c #DCAB6B",
"*.	c #D6A06B",
"=.	c #CF9E68",
"-.	c #B99164",
";.	c #13130E",
">.	c #090305",
",.	c #36131A",
"'.	c #785F3F",
").	c #9D5F91",
"!.	c #995D91",
"~.	c #9D637E",
"{.	c #947B54",
"].	c #B3B3B3",
"^.	c #D8A86D",
"/.	c #D5A66B",
"(.	c #CE9E6B",
"_.	c #A49068",
":.	c #A5ABAA",
"<.	c #404137",
"[.	c #453A24",
"}.	c #624E35",
"|.	c #9B8156",
"1.	c #5D69A4",
"2.	c #3756C7",
"3.	c #3656C7",
"4.	c #927952",
"5.	c #926C49",
"6.	c #D19E68",
"7.	c #A98B68",
"8.	c #94B0BB",
"9.	c #353953",
"0.	c #5F4A3A",
"a.	c #8C724A",
"b.	c #AA875B",
"c.	c #A28659",
"d.	c #3A58C9",
"e.	c #003FFF",
"f.	c #95754E",
"g.	c #9E7247",
"h.	c #D4B894",
"i.	c #40464E",
"j.	c #5F4E3A",
"k.	c #8B744D",
"l.	c #A68759",
"m.	c #A68959",
"n.	c #A18359",
"o.	c #3355C7",
"p.	c #0041FF",
"q.	c #8E744E",
"r.	c #E2A064",
"s.	c #91633F",
"t.	c #76624A",
"u.	c #AA895B",
"v.	c #A18759",
"w.	c #A48155",
"x.	c #736043",
"y.	c #785E3E",
"z.	c #95754C",
"A.	c #977550",
"B.	c #6F5D47",
"C.	c #E0A164",
"D.	c #996C4C",
"E.	c #787778",
"F.	c #41392A",
"G.	c #6F5B3C",
"H.	c #A58959",
"I.	c #A18657",
"J.	c #2D2D2D",
"K.	c #121212",
"L.	c #755A3F",
"M.	c #8E7350",
"N.	c #524434",
"O.	c #E4A164",
"P.	c #9B6C4C",
"Q.	c #999999",
"R.	c #6C543A",
"S.	c #9D8153",
"T.	c #78613E",
"U.	c #000000",
"V.	c #604B33",
"W.	c #87714C",
"X.	c #868686",
"Y.	c #6B3C1E",
"Z.	c #E2A164",
"`.	c #996C4A",
" +	c #979797",
".+	c #949494",
"++	c #4C4534",
"@+	c #907450",
"#+	c #73573A",
"$+	c #604B34",
"%+	c #7C6443",
"&+	c #838383",
". + @ # $ % & * = - ; > , ' ) ! ",
"+ @ # $ % & * ~ { ] ^ / ( ) ! _ ",
"@ # $ % : < [ } | 1 2 3 4 5 _ 6 ",
"# $ % 7 8 9 0 a b c d e f g 6 h ",
"$ % i j k l m m n o d d p q r s ",
"% t u v w x y z A B C D E F G H ",
"& I J J K L M A N O P Q R R S T ",
"* U J J V W X Y Z `  ...+.+.@.#.",
"= $.%.&.*.X =.-.;.>.,.'.).!.~.{.",
"- ].^./.A (._.:.<.[.}.|.1.2.3.4.",
"].> 5.A 6.7.8.9.0.a.b.c.d.e.e.f.",
"> , ' ) g.h.i.j.k.l.m.n.o.p.p.q.",
", ' ) ! r.s.t.a.u.v.w.x.y.z.A.B.",
"' ) ! C.D.E.F.G.H.I.x.J.K.L.M.N.",
") ! O.P.E.s H Q.R.S.T.K.U.V.W.X.",
"Y.Z.`.E.s H Q. +.+++@+#+$+%+X.&+"};
