/* XPM */
static char * recyclebin_xpm[] = {
"16 16 41 1",
" 	c None",
".	c #CCCCCC",
"+	c #C9C9C9",
"@	c #C7C7C7",
"#	c #C4C4C4",
"$	c #C2C2C2",
"%	c #BFBFFF",
"&	c #BBBBBB",
"*	c #B8B8B8",
"=	c #B6B6B6",
"-	c #B3B3B3",
";	c #B1B1B1",
">	c #AFAFAF",
",	c #ACACAC",
"'	c #AAAAAA",
")	c #A7A7A7",
"!	c #9F9F7F",
"~	c #7F7F7F",
"{	c #5F5F3F",
"]	c #BFBF7F",
"^	c #A5A5A5",
"/	c #FFFFFF",
"(	c #A3A3A3",
"_	c #B2C0DC",
":	c #BFBFBF",
"<	c #BDBDBD",
"[	c #5F7F3F",
"}	c #7FBF7F",
"|	c #1F7F00",
"1	c #949494",
"2	c #929292",
"3	c #8F8F8F",
"4	c #8D8D8D",
"5	c #007F00",
"6	c #8B8B8B",
"7	c #888888",
"8	c #868686",
"9	c #A0A0A0",
"0	c #9E9E9E",
"a	c #9B9B9B",
"b	c #838383",
".+@#$%%&*=-;>,')",
"+@#!~{]%%-;>,')^",
"@#!~{{!]///%')^(",
"#$%%_!_!]/////(!",
"$:%%%%%__]///]~{",
":<%%%%%%%%%]~{{{",
"<&*=![[__%%~{{{~",
"&*=[}%}|}%%{{{{!",
"*=-}[%%[~%_{{{{1",
"=-;%[%%%_%_{{{{2",
"-;>%~_%%~%~{{{~3",
";>,'%}_~|%~{{{!4",
">,'%%%[5~%~{{{46",
",')~_%%~%%{{{{67",
"')^(!~_%%_{{{~78",
")^(90a!~__{{~78b"};
