/* XPM */
static char * ssh_xpm[] = {
"16 16 105 2",
"  	c None",
". 	c #CCCCCC",
"+ 	c #C9C9C9",
"@ 	c #C7C7C7",
"# 	c #C4C4C4",
"$ 	c #C2C2C2",
"% 	c #BFBFBF",
"& 	c #BDBDBD",
"* 	c #BBBBBB",
"= 	c #B8B8B8",
"- 	c #B6B6B6",
"; 	c #B3B3B3",
"> 	c #B1B1B1",
", 	c #AFAFAF",
"' 	c #ACACAC",
") 	c #AAAAAA",
"! 	c #A7A7A7",
"~ 	c #A5A5A5",
"{ 	c #A3A3A3",
"] 	c #8787AA",
"^ 	c #7272A5",
"/ 	c #8383A4",
"( 	c #A0A0A0",
"_ 	c #7272A6",
": 	c #03037B",
"< 	c #6F6FA0",
"[ 	c #9E9E9E",
"} 	c #7070A3",
"| 	c #030378",
"1 	c #9191A2",
"2 	c #9B9B9B",
"3 	c #7E7EB8",
"4 	c #4040AE",
"5 	c #1818A0",
"6 	c #7878B0",
"7 	c #9E9EB0",
"8 	c #2A2A9D",
"9 	c #3B3B9F",
"0 	c #3A3A9C",
"a 	c #4B4B9B",
"b 	c #151581",
"c 	c #7D7D9E",
"d 	c #252584",
"e 	c #131374",
"f 	c #999999",
"g 	c #4040AD",
"h 	c #18189F",
"i 	c #9F9FB2",
"j 	c #8B8BAF",
"k 	c #7676AC",
"l 	c #040489",
"m 	c #8585A8",
"n 	c #7070A4",
"o 	c #383893",
"p 	c #262688",
"q 	c #7C7C9C",
"r 	c #35358A",
"s 	c #131372",
"t 	c #979797",
"u 	c #8E8EB4",
"v 	c #040494",
"w 	c #171799",
"x 	c #15158F",
"y 	c #030381",
"z 	c #8181A3",
"A 	c #030374",
"B 	c #36368E",
"C 	c #131373",
"D 	c #45458A",
"E 	c #949494",
"F 	c #A2A2B5",
"G 	c #6565AD",
"H 	c #7777AE",
"I 	c #04048C",
"J 	c #7474A9",
"K 	c #6060A4",
"L 	c #8383A5",
"M 	c #151588",
"N 	c #383895",
"O 	c #030370",
"P 	c #797999",
"Q 	c #888898",
"R 	c #020262",
"S 	c #636390",
"T 	c #828291",
"U 	c #7878AF",
"V 	c #171797",
"W 	c #6363A9",
"X 	c #161691",
"Y 	c #272794",
"Z 	c #393997",
"` 	c #26268E",
" .	c #6C6C9D",
"..	c #6A6A9B",
"+.	c #03036D",
"@.	c #656594",
"#.	c #02025F",
"$.	c #52528B",
"%.	c #8F8F8F",
"&.	c #929292",
"*.	c #8D8D8D",
"=.	c #8B8B8B",
"-.	c #888888",
";.	c #868686",
">.	c #838383",
". + @ # $ % & * = - ; > , ' ) ! ",
"+ @ # $ % & * = - ; > , ' ) ! ~ ",
"@ # $ % & * = - ; > , ' ) ! ~ { ",
"# $ % & * = - ; > , ] ^ / ~ { ( ",
"$ % & * = - ; > , ' _ : < { ( [ ",
"% & * = - ; > , ' ) } | 1 ( [ 2 ",
"& 3 4 5 6 7 8 9 0 ! a b c d e f ",
"* g h i j k l m n ~ o p q r s t ",
"= u v w , ' x y z { A B 2 C D E ",
"F G H I J K L M N c O P Q R S T ",
"U V W X m Y Z `  ...+.f @.#.$.%.",
"> , ' ) ! ~ { ( [ 2 f t E &.%.*.",
", ' ) ! ~ { ( [ 2 f t E &.%.*.=.",
"' ) ! ~ { ( [ 2 f t E &.%.*.=.-.",
") ! ~ { ( [ 2 f t E &.%.*.=.-.;.",
"! ~ { ( [ 2 f t E &.%.*.=.-.;.>."};
