/* XPM */
static char * template_xpm[] = {
"16 16 32 1",
" 	c None",
".	c #CCCCCC",
"+	c #C9C9C9",
"@	c #C7C7C7",
"#	c #C4C4C4",
"$	c #C2C2C2",
"%	c #BFBFBF",
"&	c #BDBDBD",
"*	c #BBBBBB",
"=	c #B8B8B8",
"-	c #B6B6B6",
";	c #B3B3B3",
">	c #B1B1B1",
",	c #AFAFAF",
"'	c #ACACAC",
")	c #AAAAAA",
"!	c #A7A7A7",
"~	c #A5A5A5",
"{	c #A3A3A3",
"]	c #A0A0A0",
"^	c #9E9E9E",
"/	c #9B9B9B",
"(	c #999999",
"_	c #979797",
":	c #949494",
"<	c #929292",
"[	c #8F8F8F",
"}	c #8D8D8D",
"|	c #8B8B8B",
"1	c #888888",
"2	c #868686",
"3	c #838383",
".+@#$%&*=-;>,')!",
"+@#$%&*=-;>,')!~",
"@#$%&*=-;>,')!~{",
"#$%&*=-;>,')!~{]",
"$%&*=-;>,')!~{]^",
"%&*=-;>,')!~{]^/",
"&*=-;>,')!~{]^/(",
"*=-;>,')!~{]^/(_",
"=-;>,')!~{]^/(_:",
"-;>,')!~{]^/(_:<",
";>,')!~{]^/(_:<[",
">,')!~{]^/(_:<[}",
",')!~{]^/(_:<[}|",
"')!~{]^/(_:<[}|1",
")!~{]^/(_:<[}|12",
"!~{]^/(_:<[}|123"};
