/* XPM */
static char * text_xpm[] = {
"16 16 203 2",
"  	c None",
". 	c #8585FA",
"+ 	c #9861CC",
"@ 	c #8378F1",
"# 	c #9191F9",
"$ 	c #9696F9",
"% 	c #ABABF8",
"& 	c #BABAF8",
"* 	c #CDCDF8",
"= 	c #E1E1F8",
"- 	c #EDEDF7",
"; 	c #F7F7F7",
"> 	c #F6F6F6",
", 	c #F9F9F9",
"' 	c #F8CBCC",
") 	c #F0E4EC",
"! 	c #DDDDEB",
"~ 	c #CFCFE7",
"{ 	c #D4D4F4",
"] 	c #D1D1F6",
"^ 	c #CCCCF6",
"/ 	c #C3C3F7",
"( 	c #BCBCF7",
"_ 	c #BDBDF7",
": 	c #C0C0F6",
"< 	c #C4C4F6",
"[ 	c #C1C1F6",
"} 	c #BEBEF6",
"| 	c #F9D7D7",
"1 	c #F9E8E8",
"2 	c #B9B9B9",
"3 	c #BAB5B6",
"4 	c #9C9A9A",
"5 	c #DDDDDD",
"6 	c #A6A6A6",
"7 	c #CACACA",
"8 	c #DFDFDF",
"9 	c #E7E7E7",
"0 	c #E3E3E3",
"a 	c #EAEAEA",
"b 	c #F0F0F0",
"c 	c #EBEBEB",
"d 	c #CDCDF9",
"e 	c #D8B4D7",
"f 	c #DAC0E0",
"g 	c #A2A2C6",
"h 	c #B1B1D4",
"i 	c #6E5D63",
"j 	c #908C7E",
"k 	c #87868A",
"l 	c #787879",
"m 	c #808083",
"n 	c #858589",
"o 	c #ACACAF",
"p 	c #B0B0B1",
"q 	c #B6B6B4",
"r 	c #A3A39F",
"s 	c #8A8A87",
"t 	c #EBEBF9",
"u 	c #ECCEDB",
"v 	c #E6C7D8",
"w 	c #DEDEF8",
"x 	c #D1D1EF",
"y 	c #C3BFCC",
"z 	c #9B7D29",
"A 	c #7E6920",
"B 	c #545043",
"C 	c #5B5B60",
"D 	c #727288",
"E 	c #8282A1",
"F 	c #9E9ECB",
"G 	c #A7A7E3",
"H 	c #AAAAE6",
"I 	c #AFAFEA",
"J 	c #F8F8F8",
"K 	c #F8E0E0",
"L 	c #F8D3D3",
"M 	c #F5F5F5",
"N 	c #C5C5C5",
"O 	c #C1C1C1",
"P 	c #BBAE8C",
"Q 	c #C1981B",
"R 	c #DAB126",
"S 	c #866E1D",
"T 	c #4A3E2D",
"U 	c #5E5A59",
"V 	c #7B7B7B",
"W 	c #919191",
"X 	c #CCCCCC",
"Y 	c #F2F2F2",
"Z 	c #DFCDE4",
"` 	c #E5BDD1",
" .	c #CCCCE3",
"..	c #818197",
"+.	c #8D8DA0",
"@.	c #828295",
"#.	c #8E7335",
"$.	c #B98E18",
"%.	c #C97926",
"&.	c #A04021",
"*.	c #502819",
"=.	c #4C423D",
"-.	c #626262",
";.	c #BBBBBD",
">.	c #D6D6F8",
",.	c #D5C7E8",
"'.	c #DAACCB",
").	c #D0D0F7",
"!.	c #CACAF5",
"~.	c #CAC5D9",
"{.	c #9B7820",
"].	c #5B2D18",
"^.	c #A33F21",
"/.	c #853920",
"(.	c #52271A",
"_.	c #3F302B",
":.	c #545457",
"<.	c #767689",
"[.	c #F7EEEE",
"}.	c #F7CECE",
"|.	c #C7BAAE",
"1.	c #582819",
"2.	c #5B2919",
"3.	c #A9421F",
"4.	c #863821",
"5.	c #59281C",
"6.	c #3B2822",
"7.	c #4D4C4C",
"8.	c #F2F2F7",
"9.	c #F1EBF1",
"0.	c #F1BDC2",
"a.	c #EFEFF7",
"b.	c #EFEFF6",
"c.	c #EEEEF6",
"d.	c #ECECF6",
"e.	c #EAEAF6",
"f.	c #E9E9F5",
"g.	c #BCB5C3",
"h.	c #64372E",
"i.	c #562719",
"j.	c #A03F1E",
"k.	c #8C3920",
"l.	c #6F2E1F",
"m.	c #40231C",
"n.	c #C1C1F7",
"o.	c #BFBDF5",
"p.	c #D194BD",
"q.	c #CACAF6",
"r.	c #CBCBF6",
"s.	c #C5C5F5",
"t.	c #C6C6F5",
"u.	c #C7C7F5",
"v.	c #C3BFDB",
"w.	c #714A3E",
"x.	c #572717",
"y.	c #8A381C",
"z.	c #83331F",
"A.	c #743020",
"B.	c #F6B9B9",
"C.	c #F1F0EF",
"D.	c #87645A",
"E.	c #5A2617",
"F.	c #732E1A",
"G.	c #8E391E",
"H.	c #F6BBBA",
"I.	c #F3F3F5",
"J.	c #F0F0F5",
"K.	c #EDEDF5",
"L.	c #EBEBF5",
"M.	c #E7E7F4",
"N.	c #E2E2F4",
"O.	c #DEDEF3",
"P.	c #8F737C",
"Q.	c #5F2716",
"R.	c #682A18",
"S.	c #BCBEF6",
"T.	c #CD8BBA",
"U.	c #B7B7F6",
"V.	c #B5B5F5",
"W.	c #B6B6F5",
"X.	c #B9B9F5",
"Y.	c #BCBCF5",
"Z.	c #C1C1F5",
"`.	c #CBCBF4",
" +	c #C5C5F4",
".+	c #C9C9F4",
"++	c #CDCDF4",
"@+	c #CECEF3",
"#+	c #B5A2A6",
"$+	c #622C1D",
"%+	c #F6C1C0",
"&+	c #F4F4F4",
"*+	c #F3F3F3",
"=+	c #CCC1BD",
"-+	c #F5BCBB",
";+	c #F3F3F4",
">+	c #EFEFF4",
",+	c #EBEBF4",
"'+	c #E4E4F3",
")+	c #DDDDF3",
"!+	c #D8D8F3",
"~+	c #D2D2F3",
"{+	c #CECEF2",
". + @ # $ % & * = - ; ; ; > > > ",
", ' ) ! ~ { ] ^ ^ / ( _ : < [ } ",
", | 1 2 3 4 5 6 7 8 9 0 a b a c ",
"d e f g h i j k l m n o p q r s ",
"t u v w x y z A B C D E F G H I ",
"J K L M N O P Q R S T U V W X Y ",
"w Z `  ...+.@.#.$.%.&.*.=.-.l ;.",
">.,.'.).^ ^ !.~.{.].^./.(._.:.<.",
"J [.}.; ; > > > |.1.2.3.4.5.6.7.",
"8.9.0.a.b.c.d.e.f.g.h.i.j.k.l.m.",
"n.o.p.: q.r.^ s.t.u.v.w.x.y.z.A.",
"; ; B.> > > M M M M M C.D.E.F.G.",
"; > H.> > M I.J.K.L.M.N.O.P.Q.R.",
"< S.T.U.V.W.X.Y.Z.`. +.+++@+#+$+",
"> > %+M M M M M &+&+&+&+*+*+*+=+",
"> > -+M M M M &+;+>+,+'+)+!+~+{+"};
