/* XPM */
static char * tux_xpm[] = {
"16 16 81 1",
" 	c None",
".	c #CCCCCC",
"+	c #C9C9C9",
"@	c #C7C7C7",
"#	c #C4C4C4",
"$	c #C2C2C2",
"%	c #BFBFBF",
"&	c #BDBDBD",
"*	c #BBBBBB",
"=	c #000008",
"-	c #00004A",
";	c #848484",
">	c #B1B1B1",
",	c #AFAFAF",
"'	c #ACACAC",
")	c #AAAAAA",
"!	c #A7A7A7",
"~	c #181818",
"{	c #08085A",
"]	c #A5A5A5",
"^	c #000031",
"/	c #101010",
"(	c #39217B",
"_	c #A3A3A3",
":	c #B8B8B8",
"<	c #422952",
"[	c #5A5A5A",
"}	c #424242",
"|	c #949494",
"1	c #393939",
"2	c #A0A0A0",
"3	c #B6B6B6",
"4	c #947B21",
"5	c #AD9442",
"6	c #6B5208",
"7	c #52524A",
"8	c #9E9E9E",
"9	c #B3B3B3",
"0	c #D6AD08",
"a	c #D6B518",
"b	c #C6A510",
"c	c #524221",
"d	c #292929",
"e	c #9B9B9B",
"f	c #6B5294",
"g	c #AD9C7B",
"h	c #CEAD73",
"i	c #D6D6D6",
"j	c #999999",
"k	c #C6C6CE",
"l	c #EFEFEF",
"m	c #F7F7F7",
"n	c #000010",
"o	c #979797",
"p	c #636363",
"q	c #E7E7E7",
"r	c #9C9C9C",
"s	c #080808",
"t	c #313131",
"u	c #929292",
"v	c #29187B",
"w	c #525252",
"x	c #211808",
"y	c #EFB508",
"z	c #B58421",
"A	c #EFCE7B",
"B	c #8C635A",
"C	c #EFBD10",
"D	c #8C6308",
"E	c #DEA508",
"F	c #D69C08",
"G	c #CE9C42",
"H	c #846363",
"I	c #F7C610",
"J	c #735A00",
"K	c #C68C18",
"L	c #DEA510",
"M	c #E7AD10",
"N	c #A77508",
"O	c #845A08",
"P	c #C68C29",
".+@#$%&*=-;>,')!",
"+@#$%&*==~{,')!]",
"@#$%&*^==/=()!]_",
"#$%&*:<[}|1-!]_2",
"$%&*:3<4567^]_28",
"%&*:39<0abcd|28e",
"&*:39]fghi&/28ej",
"*:39>^kllmm1nejo",
":39>-plmmmqrs=o|",
"39>;tmmmmmmm1/^u",
"9>,v;mmmmmmmws=;",
">,'xrmmmmmmm[sn;",
",r]yz|lmmmmA6s6]",
"ByCCCD1mmmmhEFCG",
"HyCCCIhmmmrJCCCC",
"BKLMCCN}}~=OyyPr"};
