/* XPM */
static char * twoplus2_xpm[] = {
"16 16 83 1",
" 	c None",
".	c #CCCCCC",
"+	c #C9C9C9",
"@	c #C7C7C7",
"#	c #C4C4C4",
"$	c #C2C2C2",
"%	c #BFBFBF",
"&	c #BDBDBD",
"*	c #BBBBBB",
"=	c #B8B8B8",
"-	c #B6B6B6",
";	c #B3B3B3",
">	c #B1B1B1",
",	c #AFAFAF",
"'	c #ACACAC",
")	c #AAAAAA",
"!	c #A7A7A7",
"~	c #7C79C0",
"{	c #413BBF",
"]	c #544FBC",
"^	c #7774B7",
"/	c #A5A5A5",
"(	c #6863BF",
"_	c #9E9DB4",
":	c #6561B9",
"<	c #3F39B4",
"[	c #A3A3A3",
"}	c #9C9BB2",
"|	c #1A13AB",
"1	c #8684B0",
"2	c #A0A0A0",
"3	c #7774B8",
"4	c #514CB5",
"5	c #9897AD",
"6	c #9E9E9E",
"7	c #1A13AA",
"8	c #3E38B0",
"9	c #3D37AC",
"0	c #8280AA",
"a	c #9B9B9B",
"b	c #8886B2",
"c	c #7471B2",
"d	c #726FAE",
"e	c #716EAC",
"f	c #999999",
"g	c #979797",
"h	c #949494",
"i	c #3C36B5",
"j	c #5D59AF",
"k	c #3A34AD",
"l	c #8A899F",
"m	c #929292",
"n	c #8684B4",
"o	c #8482B1",
"p	c #4C47B2",
"q	c #2822A7",
"r	c #6966A5",
"s	c #8F8F8F",
"t	c #726FB6",
"u	c #716EB3",
"v	c #6A67A8",
"w	c #17119D",
"x	c #8D8D8D",
"y	c #4F49B9",
"z	c #4D48B6",
"A	c #7F7CA9",
"B	c #4945AC",
"C	c #5955A8",
"D	c #8B8B8B",
"E	c #6F6CB1",
"F	c #6D6AAD",
"G	c #3933AB",
"H	c #2822A5",
"I	c #3732A4",
"J	c #3631A0",
"K	c #888888",
"L	c #8F8EA5",
"M	c #8D8CA3",
"N	c #6764A3",
"O	c #6562A0",
"P	c #73719A",
"Q	c #868686",
"R	c #838383",
".+@#$%&*=-;>,')!",
"+@#$%&*=~{]^')!/",
"@#$%&*=-(_:<)!/[",
"#$%&*=-;>}|1!/[2",
"$%&*=-;>345!/[26",
"%&*=-;>^7890[26a",
"&*=-;>,bcde[26af",
"*=-;>,')!/[26afg",
"=-;>,')!/[26afgh",
"-;>,')!/ijklfghm",
";>,'no/[p6qrghms",
">,')tu[26vwghmsx",
",')tyzA6BCghmsxD",
"')!/EF6GHIJmsxDK",
")!/[LMarNOPsxDKQ",
"!/[26afghmsxDKQR"};
