/* XPM */
static char * wmappl_xpm[] = {
"16 16 201 2",
"  	c None",
". 	c #CCCCCC",
"+ 	c #C9C9C9",
"@ 	c #C7C7C7",
"# 	c #C4C4C4",
"$ 	c #C2C2C2",
"% 	c #BFBFBF",
"& 	c #BDBDBD",
"* 	c #BBBBBB",
"= 	c #B8B8B8",
"- 	c #B6B6B6",
"; 	c #B3B3B3",
"> 	c #B1B1B1",
", 	c #AFAFAF",
"' 	c #ACACAC",
") 	c #AAAAAA",
"! 	c #A7A7A7",
"~ 	c #C0C0C0",
"{ 	c #989998",
"] 	c #737571",
"^ 	c #A5A5A5",
"/ 	c #989A97",
"( 	c #737B6D",
"_ 	c #636D5D",
": 	c #7E817C",
"< 	c #B2B2B2",
"[ 	c #696865",
"} 	c #A3A3A3",
"| 	c #9A9B99",
"1 	c #72786B",
"2 	c #6D7B60",
"3 	c #646D58",
"4 	c #645E50",
"5 	c #7C7776",
"6 	c #343024",
"7 	c #7D7978",
"8 	c #837B7A",
"9 	c #817878",
"0 	c #7C7575",
"a 	c #858383",
"b 	c #A0A0A0",
"c 	c #9D9E9D",
"d 	c #697162",
"e 	c #686F59",
"f 	c #636151",
"g 	c #635248",
"h 	c #6B3433",
"i 	c #6A3633",
"j 	c #523930",
"k 	c #6D3835",
"l 	c #974D4B",
"m 	c #954846",
"n 	c #7B3C39",
"o 	c #624846",
"p 	c #8A8888",
"q 	c #9E9E9E",
"r 	c #4B5047",
"s 	c #545C50",
"t 	c #584A42",
"u 	c #683534",
"v 	c #964C4F",
"w 	c #BC6063",
"x 	c #BA5E5A",
"y 	c #BF605D",
"z 	c #C16861",
"A 	c #BB625E",
"B 	c #B75555",
"C 	c #A74E4B",
"D 	c #8C493F",
"E 	c #6B4B41",
"F 	c #8F8E8E",
"G 	c #9B9B9B",
"H 	c #B4B4B4",
"I 	c #726767",
"J 	c #875251",
"K 	c #DB9FA0",
"L 	c #E6B9B7",
"M 	c #D37B7B",
"N 	c #D07674",
"O 	c #CC796F",
"P 	c #C27065",
"Q 	c #B96059",
"R 	c #AE534F",
"S 	c #984B45",
"T 	c #764436",
"U 	c #573C2F",
"V 	c #919191",
"W 	c #897271",
"X 	c #6D4543",
"Y 	c #E4B7B4",
"Z 	c #75534F",
"` 	c #D89A92",
" .	c #704642",
"..	c #CA7A6D",
"+.	c #673D34",
"@.	c #61382F",
"#.	c #5C2F2A",
"$.	c #9D4B45",
"%.	c #462620",
"&.	c #5F3C2B",
"*.	c #58412F",
"=.	c #8B7674",
"-.	c #6B423F",
";.	c #D79490",
">.	c #724C48",
",.	c #CF8882",
"'.	c #6F463F",
").	c #C47767",
"!.	c #653C33",
"~.	c #5F392F",
"{.	c #58322A",
"].	c #502B25",
"^.	c #43271F",
"/.	c #332016",
"(.	c #533B28",
"_.	c #665755",
":.	c #85514B",
"<.	c #69443E",
"[.	c #704D49",
"}.	c #6D4740",
"|.	c #C68176",
"1.	c #6A433A",
"2.	c #BC735F",
"3.	c #613D31",
"4.	c #A96752",
"5.	c #553329",
"6.	c #8D5543",
"7.	c #3F261B",
"8.	c #2E1D13",
"9.	c #3F4133",
"0.	c #8E8C8C",
"a.	c #7C625D",
"b.	c #603E36",
"c.	c #68463E",
"d.	c #684138",
"e.	c #684339",
"f.	c #BF7864",
"g.	c #643E32",
"h.	c #5D3B2D",
"i.	c #A1654C",
"j.	c #513326",
"k.	c #85553E",
"l.	c #3A2518",
"m.	c #513A28",
"n.	c #6E6F6E",
"o.	c #7D6E69",
"p.	c #58372E",
"q.	c #AF715F",
"r.	c #623D32",
"s.	c #B8745E",
"t.	c #B8745A",
"u.	c #5E3B2E",
"v.	c #57392A",
"w.	c #966247",
"x.	c #4A3122",
"y.	c #764F37",
"z.	c #342215",
"A.	c #4E3B29",
"B.	c #8D8D8D",
"C.	c #827C7A",
"D.	c #805F52",
"E.	c #9D644D",
"F.	c #A66750",
"G.	c #A96B52",
"H.	c #A96C4E",
"I.	c #9D664C",
"J.	c #926044",
"K.	c #885A3F",
"L.	c #7A5239",
"M.	c #684831",
"N.	c #533D2B",
"O.	c #554E46",
"P.	c #8B8B8B",
"Q.	c #837F7D",
"R.	c #7D5B4A",
"S.	c #8F5A41",
"T.	c #8F5D43",
"U.	c #8D5B3E",
"V.	c #865A3E",
"W.	c #7D5137",
"X.	c #774E34",
"Y.	c #6D4B33",
"Z.	c #5C4532",
"`.	c #534B45",
" +	c #888888",
".+	c #858483",
"++	c #704F3C",
"@+	c #6C4E3B",
"#+	c #674937",
"$+	c #654A35",
"%+	c #634834",
"&+	c #624B37",
"*+	c #5B4834",
"=+	c #595149",
"-+	c #868686",
";+	c #999999",
">+	c #979797",
",+	c #949494",
"'+	c #929292",
")+	c #8F8F8F",
"!+	c #838383",
". + @ # $ % & * = - ; > , ' ) ! ",
"+ @ ~ { ] & * = - ; > , ' ) ! ^ ",
"@ # / ( _ : < [ ; > , ' ) ! ^ } ",
"# | 1 2 3 4 5 6 7 8 9 0 a ^ } b ",
"c d e f g h i j k l m n o p b q ",
"r s t u v w x y z A B C D E F G ",
"' H I J K L M N O P Q R S T U V ",
"* = W X Y Z `  ...+.@.#.$.%.&.*.",
"= - =.-.;.>.,.'.).!.~.{.].^./.(.",
"- _.:.<.[.}.|.1.2.3.4.5.6.7.8.9.",
"; 0.a.b.c.d.e.f.g.h.i.j.k.l.m.n.",
"> , o.p.q.r.s.t.u.v.w.x.y.z.A.B.",
", ' C.D.E.F.G.H.I.J.K.L.M.N.O.P.",
"' ) ! Q.R.S.T.U.V.W.X.Y.Z.`.P. +",
") ! ^ } .+++@+#+$+%+&+*+=+P. +-+",
"! ^ } b q G ;+>+,+'+)+B.P. +-+!+"};
