/* XPM */
static char * x11amp2_xpm[] = {
"16 16 62 1",
" 	c None",
".	c #008CA2",
"+	c #008BA2",
"@	c #000B0B",
"#	c #000000",
"$	c #004C5E",
"%	c #005E7E",
"&	c #0089A0",
"*	c #003838",
"=	c #000707",
"-	c #007382",
";	c #004065",
">	c #006986",
",	c #006565",
"'	c #001818",
")	c #004848",
"!	c #007F8E",
"~	c #008099",
"{	c #004468",
"]	c #00849C",
"^	c #006767",
"/	c #005757",
"(	c #000303",
"_	c #002E2E",
":	c #005677",
"<	c #005D7D",
"[	c #006666",
"}	c #004747",
"|	c #007791",
"1	c #007E97",
"2	c #008AA1",
"3	c #007F8F",
"4	c #00E4E9",
"5	c #00EEF1",
"6	c #00E9E9",
"7	c #008B9C",
"8	c #008D9B",
"9	c #008C9B",
"0	c #004367",
"a	c #00758F",
"b	c #008EA4",
"c	c #008FA5",
"d	c #008DA3",
"e	c #008DA4",
"f	c #00476A",
"g	c #005072",
"h	c #008BA1",
"i	c #004A4A",
"j	c #007E8D",
"k	c #007A94",
"l	c #005C5C",
"m	c #000505",
"n	c #003F3F",
"o	c #004A6D",
"p	c #005A7A",
"q	c #002222",
"r	c #005E5E",
"s	c #00738E",
"t	c #00486C",
"u	c #00829B",
"v	c #004949",
"w	c #002727",
".+....@####$....",
"%&+...*###=-..++",
";>++..,'##)!.++~",
";{]++.^/(_^!.++:",
";;<++.^[},^!++|;",
";;;1+2[[[[[3++;;",
";;4+5+[6[6[7+54;",
";;445+[666[85;;;",
";;444+[666[9;4;;",
";;4;4+[6[6[+;;4;",
";;4;5+[6^6[+540;",
";;;abc[[[[[+def;",
";;gh++^[i[[j++>;",
";;k+..[lmn[!.+&o",
";p++..[q#=r!..+s",
"tu+..+v###w!..++"};
