/* XPM */
static char * xterm_xpm[] = {
"16 16 75 1",
" 	c None",
".	c #CCCCCC",
"+	c #C9C9C9",
"@	c #C7C7C7",
"#	c #C4C4C4",
"$	c #C2C2C2",
"%	c #BFBFBF",
"&	c #BDBDBD",
"*	c #BBBBBB",
"=	c #B8B8B8",
"-	c #B6B6B6",
";	c #B3B3B3",
">	c #B1B1B1",
",	c #AFAFAF",
"'	c #ACACAC",
")	c #AAAAAA",
"!	c #A7A7A7",
"~	c #E8E8E8",
"{	c #F0F0F0",
"]	c #F0ECE8",
"^	c #E8E8E0",
"/	c #979797",
"(	c #687068",
"_	c #9B9B95",
":	c #A5A5A5",
"<	c #ACAAB2",
"[	c #504870",
"}	c #403054",
"|	c #1C1448",
"1	c #100840",
"2	c #0C043C",
"3	c #000028",
"4	c #000018",
"5	c #505040",
"6	c #A3A3A3",
"7	c #484068",
"8	c #10004C",
"9	c #1EAE1E",
"0	c #080038",
"a	c #545844",
"b	c #A0A0A0",
"c	c #606048",
"d	c #30302A",
"e	c #686858",
"f	c #404038",
"g	c #504068",
"h	c #9E9E9E",
"i	c #70705C",
"j	c #585070",
"k	c #9B9B9B",
"l	c #7A7D72",
"m	c #5D5D58",
"n	c #5A5578",
"o	c #999999",
"p	c #888874",
"q	c #686078",
"r	c #606060",
"s	c #404058",
"t	c #504860",
"u	c #48424A",
"v	c #383C44",
"w	c #A1A1A0",
"x	c #787878",
"y	c #E0E0DC",
"z	c #D8D8D0",
"A	c #545450",
"B	c #949494",
"C	c #929292",
"D	c #8F8F8F",
"E	c #505068",
"F	c #868686",
"G	c #8D8D8D",
"H	c #8B8B8B",
"I	c #888888",
"J	c #838383",
".+@#$%&*=-;>,')!",
"+@~{{]^=-;>/(_!:",
"@#<[}|1233334!56",
"#$78992033994:ab",
"$%788990399346cd",
"%&73339999334bef",
"&*g3333993333hia",
"*=j3339999333klm",
"=-n3399339933ope",
"-;q3993333993/pi",
";>rssssstsuvvwpm",
">,x]]]]]]]^^yzlA",
",')!:6bhko/BCDAE",
"')EEEEEEEEEEEEEE",
")!:EEEEEEEEEEEEF",
"!:6bhko/BCDGHIFJ"};
