/* XPM */
static char * yingyang_xpm[] = {
"16 16 215 2",
"  	c None",
". 	c #CACACA",
"+ 	c #C8C8C8",
"@ 	c #C6C6C6",
"# 	c #BEBEC5",
"$ 	c #A6A6C6",
"% 	c #9F9FBA",
"& 	c #9D9DAA",
"* 	c #9B9BA6",
"= 	c #99999B",
"- 	c #979798",
"; 	c #959599",
"> 	c #9898A6",
", 	c #A9A9AC",
"' 	c #ABABAB",
") 	c #A9A9A9",
"! 	c #A6A6A6",
"~ 	c #C6C6C7",
"{ 	c #BDBDC4",
"] 	c #9191C4",
"^ 	c #3535C1",
"/ 	c #2525AD",
"( 	c #383872",
"_ 	c #3C3C67",
": 	c #373747",
"< 	c #232343",
"[ 	c #1E1E3E",
"} 	c #303078",
"| 	c #7B7B96",
"1 	c #9191A6",
"2 	c #A1A1A7",
"3 	c #A5A5A5",
"4 	c #BDBDC3",
"5 	c #9191BE",
"6 	c #3030A9",
"7 	c #0B0B7B",
"8 	c #2E2EBA",
"9 	c #7F7FAC",
"0 	c #7D7DA4",
"a 	c #636391",
"b 	c #1818A1",
"c 	c #131355",
"d 	c #090954",
"e 	c #18185C",
"f 	c #2E2E93",
"g 	c #7B7BA4",
"h 	c #9D9DA3",
"i 	c #9191C1",
"j 	c #30309D",
"k 	c #0B0B82",
"l 	c #2E2EA8",
"m 	c #8888BC",
"n 	c #9696B9",
"o 	c #3737AF",
"p 	c #191972",
"q 	c #1C1CA3",
"r 	c #5E5E8B",
"s 	c #17174D",
"t 	c #00005C",
"u 	c #040475",
"v 	c #282893",
"w 	c #7373A5",
"x 	c #A6A6C4",
"y 	c #3535BD",
"z 	c #0B0B86",
"A 	c #2E2EB4",
"B 	c #AFAFB6",
"C 	c #9595A5",
"D 	c #1E1E6D",
"E 	c #1C1C60",
"F 	c #707096",
"G 	c #1C1C90",
"H 	c #000072",
"I 	c #000064",
"J 	c #040462",
"K 	c #1515A5",
"L 	c #8484B2",
"M 	c #202096",
"N 	c #2E2EB0",
"O 	c #AFAFB7",
"P 	c #B2B2B3",
"Q 	c #9898A7",
"R 	c #35357B",
"S 	c #1C1C64",
"T 	c #323268",
"U 	c #737396",
"V 	c #1B1B8E",
"W 	c #000071",
"X 	c #000068",
"Y 	c #000061",
"Z 	c #1B1B9A",
"` 	c #1F1F72",
" .	c #8383A9",
"..	c #B3B3B3",
"+.	c #B1B1B1",
"@.	c #A9A9AD",
"#.	c #9393A3",
"$.	c #87879D",
"%.	c #7777A0",
"&.	c #6D6D88",
"*.	c #17174A",
"=.	c #000063",
"-.	c #00004B",
";.	c #00008B",
">.	c #1E1E59",
",.	c #96969F",
"'.	c #AAAAB0",
").	c #9494B3",
"!.	c #8D8DA8",
"~.	c #78789E",
"{.	c #2D2DA6",
"].	c #161671",
"^.	c #04045E",
"/.	c #000069",
"(.	c #0000C0",
"_.	c #1E1E4F",
":.	c #949498",
"<.	c #B0B0B0",
"[.	c #AEAEAF",
"}.	c #9393B0",
"|.	c #3434BB",
"1.	c #1C1C9B",
"2.	c #17175C",
"3.	c #040449",
"4.	c #00006B",
"5.	c #00006A",
"6.	c #0000A3",
"7.	c #1D1D49",
"8.	c #929296",
"9.	c #AEAEAE",
"0.	c #A6A6A8",
"a.	c #7A7A90",
"b.	c #17176D",
"c.	c #030374",
"d.	c #06066D",
"e.	c #040466",
"f.	c #01016B",
"g.	c #181853",
"h.	c #1D1D4E",
"i.	c #7D7D9D",
"j.	c #A2A2AE",
"k.	c #7F7F9E",
"l.	c #2A2A5A",
"m.	c #080861",
"n.	c #191976",
"o.	c #33338E",
"p.	c #26267C",
"q.	c #0A0A6E",
"r.	c #010167",
"s.	c #000062",
"t.	c #000045",
"u.	c #1E1E78",
"v.	c #2F2FA0",
"w.	c #7E7EAE",
"x.	c #4141A3",
"y.	c #09093B",
"z.	c #08085A",
"A.	c #424288",
"B.	c #7B7BB4",
"C.	c #636395",
"D.	c #202069",
"E.	c #000050",
"F.	c #9595AF",
"G.	c #3030A3",
"H.	c #1C1C62",
"I.	c #737385",
"J.	c #72728C",
"K.	c #171737",
"L.	c #09095F",
"M.	c #6464AE",
"N.	c #8C8CBA",
"O.	c #8585B0",
"P.	c #35356A",
"Q.	c #020263",
"R.	c #00006C",
"S.	c #030380",
"T.	c #1212B0",
"U.	c #A6A6AD",
"V.	c #7F7FAA",
"W.	c #2E2E85",
"X.	c #2D2D4E",
"Y.	c #5E5E70",
"Z.	c #16165A",
"`.	c #06065F",
" +	c #5555A8",
".+	c #8D8DB7",
"++	c #8080B3",
"@+	c #2B2B75",
"#+	c #010164",
"$+	c #03037B",
"%+	c #212195",
"&+	c #606098",
"*+	c #7B7B97",
"=+	c #2D2D5C",
"-+	c #16164E",
";+	c #04046C",
">+	c #020240",
",+	c #191957",
"'+	c #47478D",
")+	c #333371",
"!+	c #0B0B63",
"~+	c #64648F",
"{+	c #818187",
"]+	c #9E9EA0",
"^+	c #73739A",
"/+	c #16169A",
"(+	c #00002D",
"_+	c #02024C",
":+	c #040468",
"<+	c #030361",
"[+	c #00005F",
"}+	c #000057",
"|+	c #1313B1",
"1+	c #616199",
"2+	c #838383",
". + @ # $ % & * = - ; > , ' ) ! ",
"+ ~ { ] ^ / ( _ : < [ } | 1 2 3 ",
"@ 4 5 6 7 8 9 0 a b c d e f g h ",
"# i j k l m n o p q r s t u v w ",
"x y z A m B C D t E F G H I J K ",
"L M N m O P Q R S T U V W X Y Y ",
"Z `  .B ..+.@.#.$.%.&.*.t X =.-.",
";.>.,.P +.'.).!.~.{.].^.=./.X I ",
"(._.:.<.[.}.|.1.2.3.=.4.4.5.5.5.",
"6.7.8.9.0.a.b.c.d.e.f.4.4.5.X I ",
"g.h.i.j.k.l.m.n.o.p.q.r././.s.t.",
"a.u.v.w.x.y.z.A.B.C.D.r.5./.=.E.",
"F.G.H.I.J.K.L.M.N.O.P.Q.5.R.S.T.",
"U.V.W.X.Y.Z.`. +.+++@+#+R.$+%+&+",
") 2 *+=+-+;+>+,+'+)+!+I S.%+~+{+",
"! 3 ]+^+/+-.(+_+:+<+[+}+|+1+{+2+"};
